<svg xmlns="http://www.w3.org/2000/svg" style="display: none;"><symbol id="camera-with-white-lens" viewBox="0 0 856.506 856.506"><title>camera-with-white-lens</title><path d="M20,728.816h816.506c11.046,0,20-8.954,20-20V228.013c0-11.046-8.954-20-20-20h-530.81v-60.323c0-11.046-8.954-20-20-20 H114.253c-11.046,0-20,8.954-20,20v60.323H20c-11.046,0-20,8.954-20,20v480.804C0,719.862,8.954,728.816,20,728.816z M427.027,300.181c93.607,0,169.491,75.884,169.491,169.492s-75.884,169.492-169.491,169.492 c-93.608,0-169.492-75.884-169.492-169.492S333.419,300.181,427.027,300.181z"/></symbol><symbol id="photo-slideshow" viewBox="0 0 922 922"><title>photo-slideshow</title><path d="M922,453V81c0-11.046-8.954-20-20-20H410c-11.045,0-20,8.954-20,20v149h318c24.812,0,45,20.187,45,45v198h149 C913.046,473.001,922,464.046,922,453z"/><path d="M557,667.001h151c11.046,0,20-8.954,20-20v-174v-198c0-11.046-8.954-20-20-20H390H216c-11.045,0-20,8.954-20,20v149h194 h122c24.812,0,45,20.187,45,45v4V667.001z"/><path d="M0,469v372c0,11.046,8.955,20,20,20h492c11.046,0,20-8.954,20-20V692v-12.501V667V473v-4c0-11.046-8.954-20-20-20H390H196 h-12.5H171H20C8.955,449,0,457.955,0,469z"/></symbol><symbol id="color-control" viewBox="0 0 926.516 926.516"><title>color-control</title><path d="M463.258,471.161c-48.547,54.68-119.368,89.13-198.241,89.13c-19.028,0-37.595-2.007-55.487-5.818 c-7.341,24.298-11.289,50.074-11.289,76.768c0,146.365,118.652,265.018,265.017,265.018s265.017-118.652,265.017-265.017 c0-26.693-3.947-52.47-11.289-76.768c-17.892,3.812-36.459,5.818-55.486,5.818C582.626,560.292,511.805,525.841,463.258,471.161z"/><path d="M407.771,372.042c-7.341-24.298-11.289-50.074-11.289-76.767c0-67.492,25.234-129.097,66.776-175.887 c-48.547-54.68-119.368-89.13-198.241-89.13C118.652,30.258,0,148.91,0,295.275C0,422.61,89.799,528.971,209.53,554.474 C237.209,462.86,313.139,392.199,407.771,372.042z"/><path d="M407.771,372.042c11.221,37.138,30.375,70.835,55.487,99.119c25.112-28.285,44.266-61.981,55.487-99.119 c-17.893-3.812-36.459-5.818-55.487-5.818S425.663,368.23,407.771,372.042z"/><path d="M661.499,30.258c-78.873,0-149.694,34.45-198.241,89.13c41.542,46.79,66.776,108.395,66.776,175.887 c0,26.693-3.948,52.469-11.289,76.767c94.632,20.157,170.562,90.817,198.241,182.432 c119.73-25.503,209.529-131.862,209.529-259.199C926.516,148.91,807.864,30.258,661.499,30.258z"/></symbol><symbol id="flim-roll" viewBox="0 0 903.114 903.115"><title>flim-roll</title><path d="M349.297,809.269c20.453,0.706,113.194,1.444,221.081-36.29c70.806-24.764,133.674-61.034,186.86-107.805 c61.7-54.258,110.174-122.573,144.292-203.287c4.398-10.405-0.689-22.391-11.23-26.456l-34.824-13.428 c-10.029-3.867-21.361,0.869-25.565,10.761c-29.54,69.495-71.1,128.084-123.721,174.357 c-14.337,12.607-29.523,24.334-45.507,35.158c34.859-55.222,55.039-120.637,55.039-190.768 c0-197.019-159.213-356.852-355.997-357.855C162.185,92.648,0.338,253.342,0,450.885 C-0.333,645.952,155.405,804.715,349.297,809.269z M557.517,363.479c48.62,0,88.033,39.414,88.033,88.034 s-39.414,88.034-88.033,88.034c-48.62,0-88.034-39.414-88.034-88.034S508.896,363.479,557.517,363.479z M357.861,163.826 c48.62,0,88.034,39.414,88.034,88.034c0,48.62-39.414,88.034-88.034,88.034s-88.034-39.414-88.034-88.034 C269.827,203.24,309.241,163.826,357.861,163.826z M357.861,563.133c48.62,0,88.034,39.414,88.034,88.034 s-39.414,88.034-88.034,88.034s-88.034-39.414-88.034-88.034C269.827,602.548,309.241,563.133,357.861,563.133z M70.173,451.513 c0-48.62,39.414-88.034,88.034-88.034s88.034,39.414,88.034,88.034s-39.414,88.034-88.034,88.034S70.173,500.133,70.173,451.513z"/></symbol><symbol id="camera-portrait-mode-1" viewBox="0 0 882.756 882.757"><title>camera-portrait-mode-1</title><path d="M864.083,862.757V20c0-11.046-8.954-20-20-20H38.674c-11.046,0-20,8.954-20,20v842.757c0,11.046,8.954,20,20,20h805.408 C855.128,882.757,864.083,873.803,864.083,862.757z M777.074,491.478h-671.39V89.437h671.391L777.074,491.478L777.074,491.478z"/><path d="M339.491,451.897h101.888h101.888c11.046,0,20-8.953,20-20v-21.599c0-17.329-5.325-34.404-15.038-48.742 c-10.902-16.098-26.152-24.174-42.669-33.03c-10.637-5.704-20.524-14.015-25.308-24.857c30.581-14.55,51.721-45.729,51.721-81.848 c0-50.033-40.56-90.593-90.594-90.593s-90.594,40.56-90.594,90.593c0,36.12,21.14,67.298,51.721,81.848 c-4.784,10.843-14.672,19.154-25.308,24.857c-16.518,8.856-31.767,16.933-42.669,33.03c-9.713,14.338-15.038,31.413-15.038,48.742 v21.599C319.491,442.944,328.445,451.897,339.491,451.897z"/></symbol><symbol id="film-roll" viewBox="0 0 940 940"><title>film-roll</title><path d="M900.199,0h-46.514c-11.046,0-20,8.954-20,20v24.89c0,11.045-8.954,20-20,20h-43.37c-11.046,0-20-8.955-20-20V20 c0-11.046-8.953-20-20-20H208.121c-11.046,0-20,8.954-20,20v24.89c0,11.045-8.954,20-20,20h-43.37c-11.046,0-20-8.955-20-20V20 c0-11.046-8.954-20-20-20h-44.95c-11.046,0-20,8.954-20,20v900c0,11.046,8.954,20,20,20h44.95c11.046,0,20-8.954,20-20v-18.285 c0-11.046,8.954-20,20-20h43.37c11.046,0,20,8.954,20,20V920c0,11.046,8.954,20,20,20h522.194c11.047,0,20-8.954,20-20v-18.285 c0-11.046,8.954-20,20-20h43.37c11.046,0,20,8.954,20,20V920c0,11.046,8.954,20,20,20h46.514c11.046,0,20-8.954,20-20V20 C920.199,8.955,911.245,0,900.199,0z M188.121,765.369c0,11.046-8.954,20-20,20h-43.37c-11.046,0-20-8.954-20-20v-43.37 c0-11.045,8.954-20,20-20h43.37c11.046,0,20,8.955,20,20V765.369z M188.121,585.653c0,11.045-8.954,20-20,20h-43.37 c-11.046,0-20-8.955-20-20v-43.371c0-11.045,8.954-20,20-20h43.37c11.046,0,20,8.955,20,20V585.653z M188.121,405.936 c0,11.047-8.954,20-20,20h-43.37c-11.046,0-20-8.953-20-20v-43.37c0-11.046,8.954-20,20-20h43.37c11.046,0,20,8.954,20,20V405.936z M188.121,226.22c0,11.046-8.954,20-20,20h-43.37c-11.046,0-20-8.954-20-20v-43.37c0-11.045,8.954-20,20-20h43.37 c11.046,0,20,8.955,20,20V226.22z M663.836,834.267c0,11.047-8.954,20-20,20H296.164c-11.046,0-20-8.953-20-20V673.545 c0-11.046,8.954-20,20-20h347.672c11.046,0,20,8.954,20,20V834.267L663.836,834.267z M663.836,550.361c0,11.046-8.954,20-20,20 H296.164c-11.046,0-20-8.954-20-20V389.639c0-11.045,8.954-20,20-20h347.672c11.046,0,20,8.955,20,20V550.361L663.836,550.361z M663.836,266.454c0,11.046-8.954,20-20,20H296.164c-11.046,0-20-8.954-20-20V105.732c0-11.045,8.954-20,20-20h347.672 c11.046,0,20,8.955,20,20V266.454L663.836,266.454z M833.686,765.369c0,11.046-8.954,20-20,20h-43.37c-11.046,0-20-8.954-20-20 v-43.37c0-11.045,8.954-20,20-20h43.37c11.046,0,20,8.955,20,20V765.369z M833.686,585.653c0,11.045-8.954,20-20,20h-43.37 c-11.046,0-20-8.955-20-20v-43.371c0-11.045,8.954-20,20-20h43.37c11.046,0,20,8.955,20,20V585.653z M833.686,405.936 c0,11.047-8.954,20-20,20h-43.37c-11.046,0-20-8.953-20-20v-43.37c0-11.046,8.954-20,20-20h43.37c11.046,0,20,8.954,20,20V405.936z M833.686,226.22c0,11.046-8.954,20-20,20h-43.37c-11.046,0-20-8.954-20-20v-43.37c0-11.045,8.954-20,20-20h43.37 c11.046,0,20,8.955,20,20V226.22z"/></symbol><symbol id="camera-portrait-mode" viewBox="0 0 883 883"><title>camera-portrait-mode</title><path d="M20,0C8.954,0,0,8.954,0,20v294.205c0,11.046,8.954,20,20,20h35c11.046,0,20-8.954,20-20V95c0-11.046,8.954-20,20-20 h219.206c11.046,0,20-8.954,20-20V20c0-11.046-8.954-20-20-20H20z"/><path d="M883,192.104v-36.721V20c0-11.046-8.954-20-20-20h-99.5h-18H568.795c-11.046,0-20,8.954-20,20v35c0,11.046,8.954,20,20,20 H745.5h18H788c11.046,0,20,8.954,20,20v60.383v36.721v122.103c0,11.046,8.954,20,20,20h35c11.046,0,20-8.954,20-20V192.104z"/><path d="M20,883h294.205c11.046,0,20-8.953,20-20v-35c0-11.047-8.954-20-20-20H95c-11.046,0-20-8.953-20-20V568.795 c0-11.047-8.954-20-20-20H20c-11.046,0-20,8.953-20,20V863C0,874.047,8.954,883,20,883z"/><path d="M568.794,883H863c11.046,0,20-8.953,20-20V568.795c0-11.047-8.954-20-20-20h-35c-11.046,0-20,8.953-20,20V788 c0,11.047-8.954,20-20,20H568.794c-11.046,0-20,8.953-20,20v35C548.794,874.047,557.748,883,568.794,883z"/><path d="M664.562,757.566c11.046,0,20-8.955,20-20v-62.955c0-34.557-10.621-68.605-29.988-97.199 c-21.743-32.102-52.152-48.205-85.088-65.865c-21.21-11.373-40.93-27.947-50.469-49.57c60.982-29.013,103.14-91.189,103.14-163.216 c-0.001-99.774-80.884-180.656-180.657-180.656S260.844,198.986,260.844,298.76c0,72.027,42.157,134.203,103.14,163.216 c-9.539,21.623-29.259,38.197-50.469,49.57c-32.937,17.66-63.346,33.764-85.088,65.865c-19.367,28.594-29.988,62.645-29.988,97.199 v62.955c0,11.045,8.954,20,20,20H441.5H664.562L664.562,757.566z"/></symbol><symbol id="camera" viewBox="0 0 959.826 959.826"><title>camera</title><path d="M866.058,75.973H363.994V18.917C363.994,8.469,355.525,0,345.077,0H182.918c-10.447,0-18.917,8.469-18.917,18.917v57.056 H93.77c-10.448,0-18.917,8.469-18.917,18.917v454.766c0,10.447,8.469,18.916,18.917,18.916h213.626h345.035h213.625 c10.449,0,18.918-8.469,18.918-18.916V94.89C884.974,84.442,876.505,75.973,866.058,75.973z M478.753,483.775 c-65.973,0-122.63-39.857-147.228-96.8c-8.414-19.477-13.085-40.948-13.085-63.513c0-88.538,71.774-160.313,160.312-160.313 c88.539,0,160.314,71.775,160.314,160.313c0,21.815-4.365,42.609-12.258,61.566C602.671,443.009,545.476,483.775,478.753,483.775z"/><path d="M623.237,617.549c6.219-7.518,11.852-15.535,16.844-23.977H319.747c4.992,8.441,10.624,16.459,16.844,23.977 L98.374,943.932c-4.823,6.605-0.103,15.895,8.077,15.895h59.87c6.415,0,12.441-3.078,16.202-8.275l209.025-288.834 c15.98,8.645,33.37,15.014,51.735,18.684v257.393c0,11.047,8.954,20,20,20h30.937c11.047,0,20-8.953,20-20V681.846 c19.223-3.586,37.406-10.119,54.057-19.129l209.027,288.836c3.762,5.195,9.787,8.273,16.201,8.273h59.871 c8.18,0,12.9-9.287,8.076-15.895L623.237,617.549z"/></symbol></svg>